<svg width="14" height="15" viewBox="0 0 14 15" fill="none" xmlns="http://www.w3.org/2000/svg">
<path fill-rule="evenodd" clip-rule="evenodd" d="M7.52151 1.46603C7.52151 1.17148 7.28272 0.932695 6.98817 0.932695C6.69362 0.932695 6.45484 1.17148 6.45484 1.46603L6.45484 6.96668L0.954251 6.96668C0.659698 6.96668 0.420916 7.20546 0.420916 7.50001C0.420916 7.79456 0.659699 8.03335 0.954251 8.03335L6.45484 8.03335L6.45484 13.534C6.45484 13.8285 6.69362 14.0673 6.98817 14.0673C7.28273 14.0673 7.52151 13.8285 7.52151 13.534L7.52151 8.03335L13.0222 8.03335C13.3168 8.03335 13.5555 7.79457 13.5555 7.50002C13.5555 7.20546 13.3167 6.96668 13.0222 6.96668L7.52151 6.96668L7.52151 1.46603Z" fill="#6D6AFE"/>
</svg>
